<svg xmlns="http://www.w3.org/2000/svg" viewBox="411 864 108 209" width="108" height="209" role="img" aria-labelledby="left-leg-title" data-pivot-x="446" data-pivot-y="894">
<title id="left-leg-title">Left Leg — layered paper gramophone</title>
<defs><linearGradient id="left-leg-gold" x1="0" y1="0" x2="1" y2="0.6" gradientUnits="objectBoundingBox"><stop stop-color="#F1C568"/><stop offset="0.52" stop-color="#D9A23A"/><stop offset="1" stop-color="#B67E2D"/></linearGradient>
<linearGradient id="left-leg-wood" x1="0" y1="0" x2="0.8" y2="1"><stop stop-color="#9A6336"/><stop offset="1" stop-color="#654024"/></linearGradient>
<linearGradient id="left-leg-horn-shade" x1="0" y1="0.8" x2="0.9" y2="0.1"><stop stop-color="#72471C"/><stop offset="0.38" stop-color="#AD7529"/><stop offset="0.72" stop-color="#D9A23A"/><stop offset="1" stop-color="#F1C568"/></linearGradient>
<linearGradient id="left-leg-shoe" x1="0" y1="0" x2="0.3" y2="1"><stop stop-color="#987050"/><stop offset="1" stop-color="#65452F"/></linearGradient></defs><g id="left-leg-paper-art">
<g id="left-leg-thigh">
<g id="left-leg-paper-base">
<path d="M430.86910056714873 897.3624220961892 L448.86910056714873 978.3624220961892 L479.13089943285127 971.6375779038108 L461.13089943285127 890.6375779038108 Z" fill="url(#left-leg-gold)" stroke="#946226" stroke-width="2" stroke-linejoin="round" stroke-linecap="round" /><path d="M436.6188423516322 896.0847016996373 L454.6188423516322 977.0847016996373" fill="none" stroke="#F1C568" stroke-width="3" stroke-linejoin="round" stroke-linecap="round" /><path d="M455.8350846313533 891.814425637477 L473.8350846313533 972.814425637477" fill="none" stroke="#A96E22" stroke-width="3" stroke-linejoin="round" stroke-linecap="round" />
</g><g id="left-leg-joint">
<ellipse cx="450" cy="897" rx="22" ry="22" fill="#805322"/><ellipse cx="446" cy="894" rx="22" ry="22" fill="url(#left-leg-gold)" stroke="#946226" stroke-width="1.5"/><path d="M 430.16 897 A 16.72 16.72 0 0 1 452.6 878.6" fill="none" stroke="#F1C568" stroke-width="2" stroke-linejoin="round" stroke-linecap="round" /><ellipse cx="446" cy="894" rx="12.32" ry="12.32" fill="#BE8737" stroke="#8B6027" stroke-width="1.5"/><ellipse cx="445" cy="893" rx="7.260000000000001" ry="7.260000000000001" fill="#D9A650"/><ellipse cx="468" cy="978" rx="25" ry="25" fill="#805322"/><ellipse cx="464" cy="975" rx="25" ry="25" fill="url(#left-leg-gold)" stroke="#946226" stroke-width="1.5"/><path d="M 446.0 978 A 19.0 19.0 0 0 1 471.5 957.5" fill="none" stroke="#F1C568" stroke-width="2" stroke-linejoin="round" stroke-linecap="round" /><ellipse cx="464" cy="975" rx="14.000000000000002" ry="14.000000000000002" fill="#BE8737" stroke="#8B6027" stroke-width="1.5"/><ellipse cx="463" cy="974" rx="8.25" ry="8.25" fill="#D9A650"/>
</g>
</g><g id="left-leg-shin">
<g id="left-leg-paper-base-2">
<path d="M450.38071299440486 971.7573126177155 L435.38071299440486 1034.7573126177153 L462.61928700559514 1041.2426873822847 L477.61928700559514 978.2426873822845 Z" fill="url(#left-leg-gold)" stroke="#946226" stroke-width="2" stroke-linejoin="round" stroke-linecap="round" /><path d="M455.556042056531 972.9895338229836 L440.556042056531 1035.9895338229835" fill="none" stroke="#F1C568" stroke-width="3" stroke-linejoin="round" stroke-linecap="round" /><path d="M472.8525365536368 977.107746798485 L457.8525365536368 1040.1077467984849" fill="none" stroke="#A96E22" stroke-width="3" stroke-linejoin="round" stroke-linecap="round" />
</g><g id="left-leg-joint-2">
<ellipse cx="468" cy="978" rx="23" ry="23" fill="#805322"/><ellipse cx="464" cy="975" rx="23" ry="23" fill="url(#left-leg-gold)" stroke="#946226" stroke-width="1.5"/><path d="M 447.44 978 A 17.48 17.48 0 0 1 470.9 958.9" fill="none" stroke="#F1C568" stroke-width="2" stroke-linejoin="round" stroke-linecap="round" /><ellipse cx="464" cy="975" rx="12.88" ry="12.88" fill="#BE8737" stroke="#8B6027" stroke-width="1.5"/><ellipse cx="463" cy="974" rx="7.590000000000001" ry="7.590000000000001" fill="#D9A650"/><ellipse cx="453" cy="1041" rx="19" ry="19" fill="#805322"/><ellipse cx="449" cy="1038" rx="19" ry="19" fill="url(#left-leg-gold)" stroke="#946226" stroke-width="1.5"/><path d="M 435.32 1041 A 14.44 14.44 0 0 1 454.7 1024.7" fill="none" stroke="#F1C568" stroke-width="2" stroke-linejoin="round" stroke-linecap="round" /><ellipse cx="449" cy="1038" rx="10.64" ry="10.64" fill="#BE8737" stroke="#8B6027" stroke-width="1.5"/><ellipse cx="448" cy="1037" rx="6.2700000000000005" ry="6.2700000000000005" fill="#D9A650"/>
</g>
</g>
</g><g id="pivot" data-x="446" data-y="894" style="display:none"><ellipse cx="446" cy="894" rx="2" ry="2" fill="#FF00FF"/></g>
</svg>
