<svg xmlns="http://www.w3.org/2000/svg" viewBox="591 893 137 193" width="137" height="193" role="img" aria-labelledby="right-leg-title" data-pivot-x="626" data-pivot-y="923">
<title id="right-leg-title">Right Leg — layered paper gramophone</title>
<defs><linearGradient id="right-leg-gold" x1="0" y1="0" x2="1" y2="0.6" gradientUnits="objectBoundingBox"><stop stop-color="#F1C568"/><stop offset="0.52" stop-color="#D9A23A"/><stop offset="1" stop-color="#B67E2D"/></linearGradient>
<linearGradient id="right-leg-wood" x1="0" y1="0" x2="0.8" y2="1"><stop stop-color="#9A6336"/><stop offset="1" stop-color="#654024"/></linearGradient>
<linearGradient id="right-leg-horn-shade" x1="0" y1="0.8" x2="0.9" y2="0.1"><stop stop-color="#72471C"/><stop offset="0.38" stop-color="#AD7529"/><stop offset="0.72" stop-color="#D9A23A"/><stop offset="1" stop-color="#F1C568"/></linearGradient>
<linearGradient id="right-leg-shoe" x1="0" y1="0" x2="0.3" y2="1"><stop stop-color="#987050"/><stop offset="1" stop-color="#65452F"/></linearGradient></defs><g id="right-leg-paper-art">
<g id="right-leg-thigh">
<g id="right-leg-paper-base">
<path d="M612.9159714838243 931.3101262197333 L659.9159714838243 1005.3101262197333 L686.0840285161757 988.6898737802667 L639.0840285161757 914.6898737802667 Z" fill="url(#right-leg-gold)" stroke="#946226" stroke-width="2" stroke-linejoin="round" stroke-linecap="round" /><path d="M617.887902319971 928.1522782562346 L664.887902319971 1002.1522782562346" fill="none" stroke="#F1C568" stroke-width="3" stroke-linejoin="round" stroke-linecap="round" /><path d="M634.5046185355143 917.5984179571734 L681.5046185355143 991.5984179571734" fill="none" stroke="#A96E22" stroke-width="3" stroke-linejoin="round" stroke-linecap="round" />
</g><g id="right-leg-joint">
<ellipse cx="630" cy="926" rx="22" ry="22" fill="#805322"/><ellipse cx="626" cy="923" rx="22" ry="22" fill="url(#right-leg-gold)" stroke="#946226" stroke-width="1.5"/><path d="M 610.16 926 A 16.72 16.72 0 0 1 632.6 907.6" fill="none" stroke="#F1C568" stroke-width="2" stroke-linejoin="round" stroke-linecap="round" /><ellipse cx="626" cy="923" rx="12.32" ry="12.32" fill="#BE8737" stroke="#8B6027" stroke-width="1.5"/><ellipse cx="625" cy="922" rx="7.260000000000001" ry="7.260000000000001" fill="#D9A650"/><ellipse cx="677" cy="1000" rx="25" ry="25" fill="#805322"/><ellipse cx="673" cy="997" rx="25" ry="25" fill="url(#right-leg-gold)" stroke="#946226" stroke-width="1.5"/><path d="M 655.0 1000 A 19.0 19.0 0 0 1 680.5 979.5" fill="none" stroke="#F1C568" stroke-width="2" stroke-linejoin="round" stroke-linecap="round" /><ellipse cx="673" cy="997" rx="14.000000000000002" ry="14.000000000000002" fill="#BE8737" stroke="#8B6027" stroke-width="1.5"/><ellipse cx="672" cy="996" rx="8.25" ry="8.25" fill="#D9A650"/>
</g>
</g><g id="right-leg-shin">
<g id="right-leg-paper-base-2">
<path d="M659.3333811574247 993.9629735905388 L647.3333811574247 1047.962973590539 L674.6666188425753 1054.037026409461 L686.6666188425753 1000.0370264094612 Z" fill="url(#right-leg-gold)" stroke="#946226" stroke-width="2" stroke-linejoin="round" stroke-linecap="round" /><path d="M664.5266963176033 995.1170436261341 L652.5266963176033 1049.117043626134" fill="none" stroke="#F1C568" stroke-width="3" stroke-linejoin="round" stroke-linecap="round" /><path d="M681.883302247674 998.9740671661498 L669.883302247674 1052.9740671661498" fill="none" stroke="#A96E22" stroke-width="3" stroke-linejoin="round" stroke-linecap="round" />
</g><g id="right-leg-joint-2">
<ellipse cx="677" cy="1000" rx="23" ry="23" fill="#805322"/><ellipse cx="673" cy="997" rx="23" ry="23" fill="url(#right-leg-gold)" stroke="#946226" stroke-width="1.5"/><path d="M 656.44 1000 A 17.48 17.48 0 0 1 679.9 980.9" fill="none" stroke="#F1C568" stroke-width="2" stroke-linejoin="round" stroke-linecap="round" /><ellipse cx="673" cy="997" rx="12.88" ry="12.88" fill="#BE8737" stroke="#8B6027" stroke-width="1.5"/><ellipse cx="672" cy="996" rx="7.590000000000001" ry="7.590000000000001" fill="#D9A650"/><ellipse cx="665" cy="1054" rx="19" ry="19" fill="#805322"/><ellipse cx="661" cy="1051" rx="19" ry="19" fill="url(#right-leg-gold)" stroke="#946226" stroke-width="1.5"/><path d="M 647.32 1054 A 14.44 14.44 0 0 1 666.7 1037.7" fill="none" stroke="#F1C568" stroke-width="2" stroke-linejoin="round" stroke-linecap="round" /><ellipse cx="661" cy="1051" rx="10.64" ry="10.64" fill="#BE8737" stroke="#8B6027" stroke-width="1.5"/><ellipse cx="660" cy="1050" rx="6.2700000000000005" ry="6.2700000000000005" fill="#D9A650"/>
</g>
</g>
</g><g id="pivot" data-x="626" data-y="923" style="display:none"><ellipse cx="626" cy="923" rx="2" ry="2" fill="#FF00FF"/></g>
</svg>
